<svg xmlns="http://www.w3.org/2000/svg" viewBox="0 0 70.87 70.87"><defs><style>.cls-1{fill:#1d1d1b;}.cls-2{fill:none;}</style></defs><g id="Capa_2" data-name="Capa 2"><g id="Capa_1-2" data-name="Capa 1"><path class="cls-1" d="M19.86,62a15.86,15.86,0,0,1-6.66-5.74,16.21,16.21,0,0,1-2.52-8.85h10.8a8.1,8.1,0,0,0,2.19,5.42,7.33,7.33,0,0,0,5.44,2,7.81,7.81,0,0,0,5.54-1.87,6.36,6.36,0,0,0,2-4.9,6,6,0,0,0-1.37-4.07,9.45,9.45,0,0,0-3.42-2.51,52.06,52.06,0,0,0-5.65-2,56.28,56.28,0,0,1-8-3.15A14.22,14.22,0,0,1,13,31.52a14.39,14.39,0,0,1-2.2-8.41,16.28,16.28,0,0,1,2.23-8.61,14.65,14.65,0,0,1,6.27-5.63,20.91,20.91,0,0,1,9.21-1.95q7.78,0,12.64,4.19t5.36,11.68H35.45a6.63,6.63,0,0,0-2.2-4.74,7.75,7.75,0,0,0-5.44-1.88,6.53,6.53,0,0,0-4.71,1.68,6.37,6.37,0,0,0-1.77,4.86,5.32,5.32,0,0,0,1.34,3.71A10.06,10.06,0,0,0,26,28.81a56.65,56.65,0,0,0,5.58,2.12,53.89,53.89,0,0,1,8,3.19,14.81,14.81,0,0,1,5.33,4.78,14.39,14.39,0,0,1,2.23,8.38A17,17,0,0,1,45,55.57a15.35,15.35,0,0,1-6.12,6.1A19.14,19.14,0,0,1,29.33,64,21.85,21.85,0,0,1,19.86,62Z"/><circle class="cls-1" cx="55.61" cy="59.37" r="4.58"/><rect class="cls-2" width="70.87" height="70.87"/></g></g></svg>