<svg xmlns="http://www.w3.org/2000/svg" viewBox="0 0 97.35 54.9"><defs><style>.cls-1{fill:#1d1d1b;}</style></defs><g id="Capa_2" data-name="Capa 2"><g id="Capa_1-2" data-name="Capa 1"><path class="cls-1" d="M33.62,27.12c0,14.57-3.82,27.78-16.81,27.78C4,54.9,0,42.12,0,27.45S4.41,0,17,0C29.2,0,33.62,12.08,33.62,27.12Zm-23.81.2c0,9.74.92,18.4,7.11,18.4s6.84-8.1,6.84-18.53-1-18-6.75-18S9.81,15.85,9.81,27.32Z"/><path class="cls-1" d="M73.52,27.12c0,14.57-3.82,27.78-16.82,27.78-12.83,0-16.8-12.78-16.8-27.45S44.3,0,56.9,0C69.1,0,73.52,12.08,73.52,27.12Zm-23.81.2c0,9.74.92,18.4,7.11,18.4s6.84-8.1,6.84-18.53-1-18-6.75-18S49.71,15.85,49.71,27.32Z"/><path class="cls-1" d="M87.69,53.94V14.33a24.87,24.87,0,0,1-7.91,2.3V8A19.84,19.84,0,0,0,90.63.92h6.72v53Z"/></g></g></svg>