<svg xmlns="http://www.w3.org/2000/svg" viewBox="0 0 98.14 57.35"><defs><style>.cls-1{fill:#1d1d1b;}</style></defs><g id="Capa_2" data-name="Capa 2"><g id="Capa_1-2" data-name="Capa 1"><circle class="cls-1" cx="46.14" cy="52.77" r="4.58"/><path class="cls-1" d="M10,40c1,5.57,4.35,8,9.65,8s7.56-2.53,7.56-6.6c0-4.51-2.21-6.47-10-8.68-12.48-3.55-15.57-9-15.57-16.54C1.58,6.57,7.56,0,18.42,0c12.17,0,17,7.92,17.67,16h-10c-.48-3.41-2-7.12-7.95-7.12-4,0-6.45,2-6.45,5.95s1.94,5.42,9.35,7.5C34.39,26.18,37.32,32.18,37.32,40c0,10.13-6.34,17.08-18.46,17.08C7.23,57.09,1.1,50.16,0,40Z"/><path class="cls-1" d="M57.13,27.5h7.35V49.81H76v7.28H57.13Z"/><path class="cls-1" d="M79.31,27.5h7.35V49.81H98.14v7.28H79.31Z"/></g></g></svg>